<svg width="136" height="40" viewBox="0 0 136 40" fill="none" xmlns="http://www.w3.org/2000/svg">
<rect x="0.5" y="0.5" width="135" height="39" rx="3.5" fill="#171917"/>
<path fill-rule="evenodd" clip-rule="evenodd" d="M32.7975 20.4258C32.7725 17.6748 35.0495 16.3368 35.1535 16.2738C33.8645 14.3928 31.8645 14.1358 31.1625 14.1158C29.4835 13.9398 27.8555 15.1208 26.9995 15.1208C26.1275 15.1208 24.8105 14.1338 23.3915 14.1628C21.5655 14.1908 19.8555 15.2488 18.9185 16.8908C16.9845 20.2388 18.4265 25.1598 20.2795 27.8668C21.2065 29.1918 22.2895 30.6728 23.7075 30.6198C25.0945 30.5628 25.6125 29.7358 27.2865 29.7358C28.9455 29.7358 29.4315 30.6198 30.8775 30.5868C32.3655 30.5628 33.3035 29.2558 34.1985 27.9178C35.2695 26.3978 35.6995 24.9018 35.7165 24.8248C35.6815 24.8128 32.8255 23.7238 32.7975 20.4258Z" fill="white"/>
<path fill-rule="evenodd" clip-rule="evenodd" d="M30.0655 12.3359C30.8115 11.4029 31.3215 10.1339 31.1805 8.84491C30.1005 8.89291 28.7505 9.59191 27.9725 10.5049C27.2845 11.3089 26.6695 12.6279 26.8285 13.8659C28.0415 13.9569 29.2875 13.2539 30.0655 12.3359Z" fill="white"/>
<path fill-rule="evenodd" clip-rule="evenodd" d="M46.0874 25.7158H49.8394L47.9894 20.2688H47.9384L46.0874 25.7158ZM50.3304 27.2648H45.5974L44.4604 30.6208H42.4554L46.9394 18.2028H49.0224L53.5054 30.6208H51.4664L50.3304 27.2648Z" fill="white"/>
<path fill-rule="evenodd" clip-rule="evenodd" d="M61.2779 26.0947C61.2779 24.2617 60.3309 23.0567 58.8849 23.0567C57.4649 23.0567 56.5099 24.2867 56.5099 26.0947C56.5099 27.9187 57.4649 29.1407 58.8849 29.1407C60.3309 29.1407 61.2779 27.9447 61.2779 26.0947ZM63.1879 26.0947C63.1879 28.9077 61.6819 30.7157 59.4099 30.7157C58.1199 30.7157 57.0949 30.1387 56.5609 29.1317H56.5179V33.6157H54.6599V21.5677H56.4589V23.0737H56.4929C57.0089 22.1017 58.1109 21.4727 59.3759 21.4727C61.6739 21.4727 63.1879 23.2887 63.1879 26.0947Z" fill="white"/>
<path fill-rule="evenodd" clip-rule="evenodd" d="M71.2428 26.0947C71.2428 24.2617 70.2958 23.0567 68.8498 23.0567C67.4298 23.0567 66.4748 24.2867 66.4748 26.0947C66.4748 27.9187 67.4298 29.1407 68.8498 29.1407C70.2958 29.1407 71.2428 27.9447 71.2428 26.0947ZM73.1528 26.0947C73.1528 28.9077 71.6468 30.7157 69.3748 30.7157C68.0848 30.7157 67.0598 30.1387 66.5258 29.1317H66.4828V33.6157H64.6248V21.5677H66.4238V23.0737H66.4578C66.9738 22.1017 68.0758 21.4727 69.3408 21.4727C71.6388 21.4727 73.1528 23.2887 73.1528 26.0947Z" fill="white"/>
<path fill-rule="evenodd" clip-rule="evenodd" d="M79.7389 27.1611C79.8769 28.3921 81.0729 29.2011 82.7079 29.2011C84.2739 29.2011 85.4009 28.3921 85.4009 27.2821C85.4009 26.3181 84.7209 25.7411 83.1119 25.3461L81.5029 24.9581C79.2219 24.4071 78.1639 23.3411 78.1639 21.6101C78.1639 19.4681 80.0309 17.9961 82.6819 17.9961C85.3059 17.9961 87.1049 19.4681 87.1659 21.6101H85.2899C85.1769 20.3711 84.1529 19.6231 82.6559 19.6231C81.1589 19.6231 80.1349 20.3801 80.1349 21.4811C80.1349 22.3591 80.7889 22.8761 82.3889 23.2711L83.7579 23.6071C86.3049 24.2101 87.3639 25.2331 87.3639 27.0501C87.3639 29.3731 85.5129 30.8281 82.5699 30.8281C79.8159 30.8281 77.9569 29.4071 77.8369 27.1611H79.7389Z" fill="white"/>
<path fill-rule="evenodd" clip-rule="evenodd" d="M91.3745 19.4248V21.5678H93.0965V23.0388H91.3745V28.0298C91.3745 28.8058 91.7196 29.1668 92.4766 29.1668C92.6656 29.1668 92.9676 29.1408 93.0876 29.1238V30.5868C92.8816 30.6388 92.4686 30.6728 92.0555 30.6728C90.2225 30.6728 89.5076 29.9848 89.5076 28.2288V23.0388H88.1906V21.5678H89.5076V19.4248H91.3745Z" fill="white"/>
<path fill-rule="evenodd" clip-rule="evenodd" d="M100.789 26.0947C100.789 24.1407 99.8926 22.9877 98.3876 22.9877C96.8816 22.9877 95.9866 24.1497 95.9866 26.0947C95.9866 28.0567 96.8816 29.2007 98.3876 29.2007C99.8926 29.2007 100.789 28.0567 100.789 26.0947ZM94.0936 26.0947C94.0936 23.2457 95.7706 21.4557 98.3876 21.4557C101.013 21.4557 102.683 23.2457 102.683 26.0947C102.683 28.9507 101.021 30.7337 98.3876 30.7337C95.7546 30.7337 94.0936 28.9507 94.0936 26.0947Z" fill="white"/>
<path fill-rule="evenodd" clip-rule="evenodd" d="M104.214 21.5674H105.986V23.1084H106.029C106.314 22.0844 107.14 21.4724 108.207 21.4724C108.474 21.4724 108.697 21.5074 108.844 21.5424V23.2804C108.697 23.2194 108.37 23.1684 108.009 23.1684C106.813 23.1684 106.072 23.9774 106.072 25.2514V30.6214H104.214V21.5674Z" fill="white"/>
<path fill-rule="evenodd" clip-rule="evenodd" d="M111.13 25.2598H115.656C115.613 23.8738 114.727 22.9618 113.436 22.9618C112.153 22.9618 111.225 23.8918 111.13 25.2598ZM117.412 27.9618C117.162 29.6058 115.562 30.7338 113.514 30.7338C110.88 30.7338 109.245 28.9688 109.245 26.1378C109.245 23.2978 110.889 21.4558 113.436 21.4558C115.941 21.4558 117.516 23.1768 117.516 25.9218V26.5588H111.121V26.6708C111.121 28.2198 112.094 29.2358 113.557 29.2358C114.589 29.2358 115.399 28.7448 115.648 27.9618H117.412Z" fill="white"/>
<path fill-rule="evenodd" clip-rule="evenodd" d="M44.7667 11.3784H45.5647C46.2267 11.3784 46.6897 10.9894 46.6897 10.4274C46.6897 9.8774 46.2757 9.5214 45.5737 9.5214C44.8777 9.5214 44.4227 9.8734 44.3697 10.4564H43.4937C43.5547 9.3804 44.3577 8.7114 45.6017 8.7114C46.7767 8.7114 47.6037 9.3684 47.6037 10.3154C47.6037 10.9734 47.1647 11.5314 46.5197 11.6804V11.7504C47.2927 11.8294 47.8467 12.3624 47.8467 13.1934C47.8467 14.2144 46.8797 14.9674 45.6187 14.9674C44.3207 14.9674 43.4307 14.2644 43.3767 13.2014H44.2667C44.3207 13.7724 44.8447 14.1404 45.6187 14.1404C46.3917 14.1404 46.8967 13.7274 46.8967 13.1444C46.8967 12.5524 46.4207 12.1884 45.5897 12.1884H44.7667V11.3784Z" fill="white"/>
<path fill-rule="evenodd" clip-rule="evenodd" d="M51.7521 13.1646V12.7886L50.6521 12.8586C50.0321 12.8996 49.7511 13.1106 49.7511 13.5076C49.7511 13.9136 50.1031 14.1486 50.5861 14.1486C51.2561 14.1486 51.7521 13.7226 51.7521 13.1646ZM48.8571 13.5496C48.8571 12.7386 49.4621 12.2716 50.5321 12.2056L51.7521 12.1346V11.7466C51.7521 11.2706 51.4391 11.0016 50.8301 11.0016C50.3341 11.0016 49.9911 11.1846 49.8921 11.5026H49.0311C49.1221 10.7286 49.8511 10.2326 50.8721 10.2326C52.0011 10.2326 52.6381 10.7946 52.6381 11.7466V14.8226H51.7811V14.1896H51.7111C51.4421 14.6406 50.9501 14.8966 50.3581 14.8966C49.4901 14.8966 48.8571 14.3726 48.8571 13.5496Z" fill="white"/>
<path fill-rule="evenodd" clip-rule="evenodd" d="M54.9962 11.0679V14.8229H54.1072V10.3199H57.0722V11.0679H54.9962Z" fill="white"/>
<path fill-rule="evenodd" clip-rule="evenodd" d="M61.5441 12.5693C61.5441 11.6183 61.0941 11.0433 60.3411 11.0433C59.5931 11.0433 59.1251 11.6303 59.1251 12.5733C59.1251 13.5113 59.5931 14.0993 60.3371 14.0993C61.0941 14.0993 61.5441 13.5243 61.5441 12.5693ZM62.458 12.5693C62.458 14.0003 61.7341 14.8973 60.5981 14.8973C59.9561 14.8973 59.4471 14.6163 59.2121 14.1403H59.1421V16.3193H58.2531V10.3193H59.1081V11.0643H59.1751C59.4471 10.5513 59.9771 10.2453 60.5891 10.2453C61.7341 10.2453 62.458 11.1383 62.458 12.5693Z" fill="white"/>
<path fill-rule="evenodd" clip-rule="evenodd" d="M63.6417 16.4355V15.6705C63.7117 15.6835 63.8487 15.6865 63.9317 15.6865C64.3537 15.6865 64.5927 15.5135 64.7457 15.0585L64.8127 14.8395L63.1827 10.3195H64.1507L65.2797 13.8965H65.3497L66.4747 10.3195H67.4167L65.7387 15.0085C65.3537 16.1045 64.9277 16.4565 64.0097 16.4565C63.9357 16.4565 63.7247 16.4475 63.6417 16.4355Z" fill="white"/>
<path fill-rule="evenodd" clip-rule="evenodd" d="M68.1095 13.5449H68.9945C69.0815 13.9419 69.4535 14.1489 69.9735 14.1489C70.5655 14.1489 70.9285 13.8879 70.9285 13.4829C70.9285 13.0489 70.6025 12.8419 69.9735 12.8419H69.2995V12.1509H69.9625C70.4995 12.1509 70.7725 11.9449 70.7725 11.5679C70.7725 11.2379 70.5075 10.9849 69.9625 10.9849C69.4645 10.9849 69.1015 11.1959 69.0445 11.5519H68.1875C68.2785 10.7499 68.9445 10.2329 69.9625 10.2329C71.0325 10.2329 71.6445 10.7169 71.6445 11.4779C71.6445 11.9279 71.3595 12.2959 70.9335 12.3989V12.4699C71.5165 12.6069 71.8145 12.9829 71.8145 13.4829C71.8145 14.3389 71.0865 14.9049 69.9735 14.9049C68.9905 14.9049 68.1915 14.4549 68.1095 13.5449Z" fill="white"/>
<path fill-rule="evenodd" clip-rule="evenodd" d="M73.0944 14.8228V10.3198H73.9754V13.4168H74.0454L76.1204 10.3198H77.0014V14.8228H76.1204V11.7088H76.0544L73.9754 14.8228H73.0944Z" fill="white"/>
<path fill-rule="evenodd" clip-rule="evenodd" d="M81.8541 11.0679H80.4361V14.8229H79.5461V11.0679H78.1281V10.3199H81.8541V11.0679Z" fill="white"/>
<path fill-rule="evenodd" clip-rule="evenodd" d="M83.5153 12.1558H85.7883C85.7683 11.4488 85.3382 10.9888 84.6813 10.9888C84.0233 10.9888 83.5643 11.4528 83.5153 12.1558ZM86.6413 13.6068C86.4382 14.4138 85.7183 14.9098 84.6893 14.9098C83.3993 14.9098 82.6093 14.0248 82.6093 12.5858C82.6093 11.1468 83.4153 10.2328 84.6852 10.2328C85.9382 10.2328 86.6953 11.0888 86.6953 12.5028V12.8128H83.5153V12.8628C83.5433 13.6528 84.0023 14.1528 84.7143 14.1528C85.2513 14.1528 85.6193 13.9588 85.7853 13.6068H86.6413Z" fill="white"/>
<path fill-rule="evenodd" clip-rule="evenodd" d="M91.2897 12.8213V14.1403H92.3437C92.8687 14.1403 93.1497 13.9083 93.1497 13.4833C93.1497 13.0323 92.8317 12.8213 92.2317 12.8213H91.2897ZM91.2897 11.0023V12.1683H92.1707C92.7077 12.1683 92.9647 11.9613 92.9647 11.5803C92.9647 11.2293 92.7407 11.0023 92.2687 11.0023H91.2897ZM90.4087 10.3203H92.4387C93.3197 10.3203 93.8367 10.7663 93.8367 11.4653C93.8367 11.9203 93.5147 12.3333 93.0757 12.4163V12.4863C93.6587 12.5523 94.0387 12.9783 94.0387 13.5243C94.0387 14.3103 93.4477 14.8223 92.4597 14.8223H90.4087V10.3203Z" fill="white"/>
<path fill-rule="evenodd" clip-rule="evenodd" d="M32.7975 20.4258C32.7725 17.6748 35.0495 16.3368 35.1535 16.2738C33.8645 14.3928 31.8645 14.1358 31.1625 14.1158C29.4835 13.9398 27.8555 15.1208 26.9995 15.1208C26.1275 15.1208 24.8105 14.1338 23.3915 14.1628C21.5655 14.1908 19.8555 15.2488 18.9185 16.8908C16.9845 20.2388 18.4265 25.1598 20.2795 27.8668C21.2065 29.1918 22.2895 30.6728 23.7075 30.6198C25.0945 30.5628 25.6125 29.7358 27.2865 29.7358C28.9455 29.7358 29.4315 30.6198 30.8775 30.5868C32.3655 30.5628 33.3035 29.2558 34.1985 27.9178C35.2695 26.3978 35.6995 24.9018 35.7165 24.8248C35.6815 24.8128 32.8255 23.7238 32.7975 20.4258Z" stroke="white"/>
<path fill-rule="evenodd" clip-rule="evenodd" d="M30.0655 12.3359C30.8115 11.4029 31.3215 10.1339 31.1805 8.84491C30.1005 8.89291 28.7505 9.59191 27.9725 10.5049C27.2845 11.3089 26.6695 12.6279 26.8285 13.8659C28.0415 13.9569 29.2875 13.2539 30.0655 12.3359Z" stroke="white"/>
<path fill-rule="evenodd" clip-rule="evenodd" d="M46.0874 25.7158H49.8394L47.9894 20.2688H47.9384L46.0874 25.7158ZM50.3304 27.2648H45.5974L44.4604 30.6208H42.4554L46.9394 18.2028H49.0224L53.5054 30.6208H51.4664L50.3304 27.2648Z" stroke="white"/>
<path fill-rule="evenodd" clip-rule="evenodd" d="M61.2779 26.0947C61.2779 24.2617 60.3309 23.0567 58.8849 23.0567C57.4649 23.0567 56.5099 24.2867 56.5099 26.0947C56.5099 27.9187 57.4649 29.1407 58.8849 29.1407C60.3309 29.1407 61.2779 27.9447 61.2779 26.0947ZM63.1879 26.0947C63.1879 28.9077 61.6819 30.7157 59.4099 30.7157C58.1199 30.7157 57.0949 30.1387 56.5609 29.1317H56.5179V33.6157H54.6599V21.5677H56.4589V23.0737H56.4929C57.0089 22.1017 58.1109 21.4727 59.3759 21.4727C61.6739 21.4727 63.1879 23.2887 63.1879 26.0947Z" stroke="white"/>
<path fill-rule="evenodd" clip-rule="evenodd" d="M71.2428 26.0947C71.2428 24.2617 70.2958 23.0567 68.8498 23.0567C67.4298 23.0567 66.4748 24.2867 66.4748 26.0947C66.4748 27.9187 67.4298 29.1407 68.8498 29.1407C70.2958 29.1407 71.2428 27.9447 71.2428 26.0947ZM73.1528 26.0947C73.1528 28.9077 71.6468 30.7157 69.3748 30.7157C68.0848 30.7157 67.0598 30.1387 66.5258 29.1317H66.4828V33.6157H64.6248V21.5677H66.4238V23.0737H66.4578C66.9738 22.1017 68.0758 21.4727 69.3408 21.4727C71.6388 21.4727 73.1528 23.2887 73.1528 26.0947Z" stroke="white"/>
<path fill-rule="evenodd" clip-rule="evenodd" d="M79.7389 27.1611C79.8769 28.3921 81.0729 29.2011 82.7079 29.2011C84.2739 29.2011 85.4009 28.3921 85.4009 27.2821C85.4009 26.3181 84.7209 25.7411 83.1119 25.3461L81.5029 24.9581C79.2219 24.4071 78.1639 23.3411 78.1639 21.6101C78.1639 19.4681 80.0309 17.9961 82.6819 17.9961C85.3059 17.9961 87.1049 19.4681 87.1659 21.6101H85.2899C85.1769 20.3711 84.1529 19.6231 82.6559 19.6231C81.1589 19.6231 80.1349 20.3801 80.1349 21.4811C80.1349 22.3591 80.7889 22.8761 82.3889 23.2711L83.7579 23.6071C86.3049 24.2101 87.3639 25.2331 87.3639 27.0501C87.3639 29.3731 85.5129 30.8281 82.5699 30.8281C79.8159 30.8281 77.9569 29.4071 77.8369 27.1611H79.7389Z" stroke="white"/>
<path fill-rule="evenodd" clip-rule="evenodd" d="M91.3745 19.4248V21.5678H93.0965V23.0388H91.3745V28.0298C91.3745 28.8058 91.7196 29.1668 92.4766 29.1668C92.6656 29.1668 92.9676 29.1408 93.0876 29.1238V30.5868C92.8816 30.6388 92.4686 30.6728 92.0555 30.6728C90.2225 30.6728 89.5076 29.9848 89.5076 28.2288V23.0388H88.1906V21.5678H89.5076V19.4248H91.3745Z" stroke="white"/>
<path fill-rule="evenodd" clip-rule="evenodd" d="M100.789 26.0947C100.789 24.1407 99.8926 22.9877 98.3876 22.9877C96.8816 22.9877 95.9866 24.1497 95.9866 26.0947C95.9866 28.0567 96.8816 29.2007 98.3876 29.2007C99.8926 29.2007 100.789 28.0567 100.789 26.0947ZM94.0936 26.0947C94.0936 23.2457 95.7706 21.4557 98.3876 21.4557C101.013 21.4557 102.683 23.2457 102.683 26.0947C102.683 28.9507 101.021 30.7337 98.3876 30.7337C95.7546 30.7337 94.0936 28.9507 94.0936 26.0947Z" stroke="white"/>
<path fill-rule="evenodd" clip-rule="evenodd" d="M104.214 21.5674H105.986V23.1084H106.029C106.314 22.0844 107.14 21.4724 108.207 21.4724C108.474 21.4724 108.697 21.5074 108.844 21.5424V23.2804C108.697 23.2194 108.37 23.1684 108.009 23.1684C106.813 23.1684 106.072 23.9774 106.072 25.2514V30.6214H104.214V21.5674Z" stroke="white"/>
<path fill-rule="evenodd" clip-rule="evenodd" d="M111.13 25.2598H115.656C115.613 23.8738 114.727 22.9618 113.436 22.9618C112.153 22.9618 111.225 23.8918 111.13 25.2598ZM117.412 27.9618C117.162 29.6058 115.562 30.7338 113.514 30.7338C110.88 30.7338 109.245 28.9688 109.245 26.1378C109.245 23.2978 110.889 21.4558 113.436 21.4558C115.941 21.4558 117.516 23.1768 117.516 25.9218V26.5588H111.121V26.6708C111.121 28.2198 112.094 29.2358 113.557 29.2358C114.589 29.2358 115.399 28.7448 115.648 27.9618H117.412Z" stroke="white"/>
<path fill-rule="evenodd" clip-rule="evenodd" d="M44.7667 11.3784H45.5647C46.2267 11.3784 46.6897 10.9894 46.6897 10.4274C46.6897 9.8774 46.2757 9.5214 45.5737 9.5214C44.8777 9.5214 44.4227 9.8734 44.3697 10.4564H43.4937C43.5547 9.3804 44.3577 8.7114 45.6017 8.7114C46.7767 8.7114 47.6037 9.3684 47.6037 10.3154C47.6037 10.9734 47.1647 11.5314 46.5197 11.6804V11.7504C47.2927 11.8294 47.8467 12.3624 47.8467 13.1934C47.8467 14.2144 46.8797 14.9674 45.6187 14.9674C44.3207 14.9674 43.4307 14.2644 43.3767 13.2014H44.2667C44.3207 13.7724 44.8447 14.1404 45.6187 14.1404C46.3917 14.1404 46.8967 13.7274 46.8967 13.1444C46.8967 12.5524 46.4207 12.1884 45.5897 12.1884H44.7667V11.3784Z" stroke="white"/>
<path fill-rule="evenodd" clip-rule="evenodd" d="M51.7521 13.1646V12.7886L50.6521 12.8586C50.0321 12.8996 49.7511 13.1106 49.7511 13.5076C49.7511 13.9136 50.1031 14.1486 50.5861 14.1486C51.2561 14.1486 51.7521 13.7226 51.7521 13.1646ZM48.8571 13.5496C48.8571 12.7386 49.4621 12.2716 50.5321 12.2056L51.7521 12.1346V11.7466C51.7521 11.2706 51.4391 11.0016 50.8301 11.0016C50.3341 11.0016 49.9911 11.1846 49.8921 11.5026H49.0311C49.1221 10.7286 49.8511 10.2326 50.8721 10.2326C52.0011 10.2326 52.6381 10.7946 52.6381 11.7466V14.8226H51.7811V14.1896H51.7111C51.4421 14.6406 50.9501 14.8966 50.3581 14.8966C49.4901 14.8966 48.8571 14.3726 48.8571 13.5496Z" stroke="white"/>
<path fill-rule="evenodd" clip-rule="evenodd" d="M54.9962 11.0679V14.8229H54.1072V10.3199H57.0722V11.0679H54.9962Z" stroke="white"/>
<path fill-rule="evenodd" clip-rule="evenodd" d="M61.5441 12.5693C61.5441 11.6183 61.0941 11.0433 60.3411 11.0433C59.5931 11.0433 59.1251 11.6303 59.1251 12.5733C59.1251 13.5113 59.5931 14.0993 60.3371 14.0993C61.0941 14.0993 61.5441 13.5243 61.5441 12.5693ZM62.458 12.5693C62.458 14.0003 61.7341 14.8973 60.5981 14.8973C59.9561 14.8973 59.4471 14.6163 59.2121 14.1403H59.1421V16.3193H58.2531V10.3193H59.1081V11.0643H59.1751C59.4471 10.5513 59.9771 10.2453 60.5891 10.2453C61.7341 10.2453 62.458 11.1383 62.458 12.5693Z" stroke="white"/>
<path fill-rule="evenodd" clip-rule="evenodd" d="M63.6417 16.4355V15.6705C63.7117 15.6835 63.8487 15.6865 63.9317 15.6865C64.3537 15.6865 64.5927 15.5135 64.7457 15.0585L64.8127 14.8395L63.1827 10.3195H64.1507L65.2797 13.8965H65.3497L66.4747 10.3195H67.4167L65.7387 15.0085C65.3537 16.1045 64.9277 16.4565 64.0097 16.4565C63.9357 16.4565 63.7247 16.4475 63.6417 16.4355Z" stroke="white"/>
<path fill-rule="evenodd" clip-rule="evenodd" d="M68.1095 13.5449H68.9945C69.0815 13.9419 69.4535 14.1489 69.9735 14.1489C70.5655 14.1489 70.9285 13.8879 70.9285 13.4829C70.9285 13.0489 70.6025 12.8419 69.9735 12.8419H69.2995V12.1509H69.9625C70.4995 12.1509 70.7725 11.9449 70.7725 11.5679C70.7725 11.2379 70.5075 10.9849 69.9625 10.9849C69.4645 10.9849 69.1015 11.1959 69.0445 11.5519H68.1875C68.2785 10.7499 68.9445 10.2329 69.9625 10.2329C71.0325 10.2329 71.6445 10.7169 71.6445 11.4779C71.6445 11.9279 71.3595 12.2959 70.9335 12.3989V12.4699C71.5165 12.6069 71.8145 12.9829 71.8145 13.4829C71.8145 14.3389 71.0865 14.9049 69.9735 14.9049C68.9905 14.9049 68.1915 14.4549 68.1095 13.5449Z" stroke="white"/>
<path fill-rule="evenodd" clip-rule="evenodd" d="M73.0944 14.8228V10.3198H73.9754V13.4168H74.0454L76.1204 10.3198H77.0014V14.8228H76.1204V11.7088H76.0544L73.9754 14.8228H73.0944Z" stroke="white"/>
<path fill-rule="evenodd" clip-rule="evenodd" d="M81.8541 11.0679H80.4361V14.8229H79.5461V11.0679H78.1281V10.3199H81.8541V11.0679Z" stroke="white"/>
<path fill-rule="evenodd" clip-rule="evenodd" d="M83.5153 12.1558H85.7883C85.7683 11.4488 85.3382 10.9888 84.6813 10.9888C84.0233 10.9888 83.5643 11.4528 83.5153 12.1558ZM86.6413 13.6068C86.4382 14.4138 85.7183 14.9098 84.6893 14.9098C83.3993 14.9098 82.6093 14.0248 82.6093 12.5858C82.6093 11.1468 83.4153 10.2328 84.6852 10.2328C85.9382 10.2328 86.6953 11.0888 86.6953 12.5028V12.8128H83.5153V12.8628C83.5433 13.6528 84.0023 14.1528 84.7143 14.1528C85.2513 14.1528 85.6193 13.9588 85.7853 13.6068H86.6413Z" stroke="white"/>
<path fill-rule="evenodd" clip-rule="evenodd" d="M91.2897 12.8213V14.1403H92.3437C92.8687 14.1403 93.1497 13.9083 93.1497 13.4833C93.1497 13.0323 92.8317 12.8213 92.2317 12.8213H91.2897ZM91.2897 11.0023V12.1683H92.1707C92.7077 12.1683 92.9647 11.9613 92.9647 11.5803C92.9647 11.2293 92.7407 11.0023 92.2687 11.0023H91.2897ZM90.4087 10.3203H92.4387C93.3197 10.3203 93.8367 10.7663 93.8367 11.4653C93.8367 11.9203 93.5147 12.3333 93.0757 12.4163V12.4863C93.6587 12.5523 94.0387 12.9783 94.0387 13.5243C94.0387 14.3103 93.4477 14.8223 92.4597 14.8223H90.4087V10.3203Z" stroke="white"/>
<rect x="0.5" y="0.5" width="135" height="39" rx="3.5" stroke="white"/>
</svg>
